Description

Sinopse e detalhes

Uma grande onda de sequestros varre o México, fazendo com que muitos de seus cidadãos mais ricos contratem guarda-costas para seus filhos. John Creasy (Denzel Washington) é um desmotivado ex-agente da CIA, que é levado à Cidade do México por seu amigo Rayburn (Christopher Walken). Sem emprego, ele aceita a proposta de ser guarda-costas da pequena Pita (Dakota Fanning), uma garota de 9 anos que é filha de um industrial (Marc Anthony). Incomodado com as perguntas constantes da garota, John inicialmente vê seu novo trabalho como um fardo mas, aos poucos, cria amizade com Pita e passa a ter um novo ânimo em sua vida. O sequestro de Pita desfaz esta situação, fazendo com que ele, mesmo ferido, parta para resgatá-la a qualquer custo.

Format : AVI
Format/Info : Audio Video Interleave
Format profile : OpenDML
File size : 2.36 GiB
Duration : 2h 26mn
Overall bit rate mode : Variable
Overall bit rate : 2 314 Kbps
Writing application : Lavf52.84.0

Video
ID : 0
Format : AVC
Format/Info : Advanced Video Codec
Format profile : High@L3.1
Format settings, CABAC : Yes
Format settings, ReFrames : 1 frame
Format settings, GOP : M=1, N=15
Codec ID : H264
Duration : 2h 26mn
Bit rate mode : Variable
Bit rate : 2 144 Kbps
Maximum bit rate : 3 216 Kbps
Width : 1 280 pixels
Height : 720 pixels
Display aspect ratio : 16:9
Frame rate : 23.976 fps
Color space : YUV
Chroma subsampling : 4:2:0
Bit depth : 8 bits
Scan type : Progressive
Bits/(Pixel*Frame) : 0.097
Stream size : 2.19 GiB (93%)

Audio
ID : 1
Format : AC-3
Format/Info : Audio Coding 3
Mode extension : CM (complete main)
Format settings, Endianness : Big
Codec ID : 2000
Duration : 2h 26mn
Bit rate mode : Constant
Bit rate : 160 Kbps
Channel(s) : 2 channels
Channel positions : Front: L R
Sampling rate : 48.0 KHz
Bit depth : 16 bits
Compression mode : Lossy
Stream size : 167 MiB (7%)
Alignment : Aligned on interleaves
Interleave, duration : 32 ms (0.77 video frame)